<svg aria-hidden="true" style="position:absolute;width:0;height:0;overflow:hidden" xmlns="http://www.w3.org/2000/svg"><defs><symbol id="twitter-icon" viewBox="0 0 32 32"><path d="M29.08 8.303c.077-.108-.037-.247-.16-.199-.878.34-1.796.57-2.733.683a5.505 5.505 0 0 0 2.293-2.693c.045-.114-.079-.216-.187-.157a10.95 10.95 0 0 1-3.1 1.142.134.134 0 0 1-.124-.04 5.467 5.467 0 0 0-9.321 4.867.135.135 0 0 1-.139.164A15.527 15.527 0 0 1 4.644 6.511c-.06-.072-.174-.063-.217.02a5.556 5.556 0 0 0-.64 2.59 5.453 5.453 0 0 0 2.426 4.547 5.412 5.412 0 0 1-2.278-.573c-.091-.046-.2.019-.196.121.055 1.186.49 2.376 1.244 3.289a5.47 5.47 0 0 0 3.15 1.883c-.476.145-.97.221-1.467.227a6.434 6.434 0 0 1-.809-.06c-.099-.014-.181.081-.146.175a5.483 5.483 0 0 0 5.035 3.578 10.96 10.96 0 0 1-7.501 2.323c-.141-.01-.206.179-.085.251a15.424 15.424 0 0 0 7.892 2.16 15.47 15.47 0 0 0 11.074-4.511 15.443 15.443 0 0 0 4.54-11.062v-.64c0-.042.02-.082.053-.107.904-.683 1.7-1.498 2.36-2.418z"/></symbol></defs></svg>